{
  "accessors": [
    {
      "bufferView": 2,
      "componentType": 5126,
      "count": 7195,
      "max": [
        1.7519819736480713,
        4.114120006561279,
        -0.019649000838398933
      ],
      "min": [
        -1.724342942237854,
        -3.362251043319702,
        -1.7141040563583374
      ],
      "type": "VEC3"
    },
    {
      "bufferView": 2,
      "byteOffset": 86340,
      "componentType": 5126,
      "count": 7195,
      "max": [
        0.9999996423721313,
        0.9999843835830688,
        0.9999973773956299
      ],
      "min": [
        -0.9999992847442627,
        -0.9999722242355347,
        -0.9999973773956299
      ],
      "type": "VEC3"
    },
    {
      "bufferView": 1,
      "componentType": 5126,
      "count": 7195,
      "max": [
        0.9353269934654236,
        1.678313970565796
      ],
      "min": [
        0.0006419999990612268,
        -0.0009319999953731894
      ],
      "type": "VEC2"
    },
    {
      "bufferView": 0,
      "componentType": 5125,
      "count": 18540,
      "type": "SCALAR"
    },
    {
      "bufferView": 2,
      "byteOffset": 172680,
      "componentType": 5126,
      "count": 1923,
      "max": [
        1.1314990520477295,
        3.5105690956115723,
        -0.34488698840141296
      ],
      "min": [
        -1.1013250350952148,
        -2.667728900909424,
        -1.437880039215088
      ],
      "type": "VEC3"
    },
    {
      "bufferView": 2,
      "byteOffset": 195756,
      "componentType": 5126,
      "count": 1923,
      "max": [
        0.9999992847442627,
        0.9998539686203003,
        0.9998512268066406
      ],
      "min": [
        -0.9999979734420776,
        -0.999849796295166,
        -0.9998519420623779
      ],
      "type": "VEC3"
    },
    {
      "bufferView": 1,
      "byteOffset": 57560,
      "componentType": 5126,
      "count": 1923,
      "max": [
        0.997281014919281,
        0.9990749955177307
      ],
      "min": [
        0.0002749999985098839,
        -0.00030399998649954796
      ],
      "type": "VEC2"
    },
    {
      "bufferView": 0,
      "byteOffset": 74160,
      "componentType": 5125,
      "count": 4782,
      "type": "SCALAR"
    },
    {
      "bufferView": 2,
      "byteOffset": 218832,
      "componentType": 5126,
      "count": 6566,
      "max": [
        1.5970350503921509,
        2.988845109939575,
        -0.34488698840141296
      ],
      "min": [
        -1.5659539699554443,
        -5.943925857543945,
        -3.3314969539642334
      ],
      "type": "VEC3"
    },
    {
      "bufferView": 2,
      "byteOffset": 297624,
      "componentType": 5126,
      "count": 6566,
      "max": [
        0.9999995231628418,
        0.9999973773956299,
        0.9999905824661255
      ],
      "min": [
        -0.9999978542327881,
        -0.999910831451416,
        -0.9999784231185913
      ],
      "type": "VEC3"
    },
    {
      "bufferView": 1,
      "byteOffset": 72944,
      "componentType": 5126,
      "count": 6566,
      "max": [
        0.9999250173568726,
        0.9998689889907837
      ],
      "min": [
        0.0,
        3.999999989900971e-06
      ],
      "type": "VEC2"
    },
    {
      "bufferView": 0,
      "byteOffset": 93288,
      "componentType": 5125,
      "count": 17595,
      "type": "SCALAR"
    },
    {
      "bufferView": 2,
      "byteOffset": 376416,
      "componentType": 5126,
      "count": 7809,
      "max": [
        0.837581992149353,
        0.21793800592422485,
        -2.508431911468506
      ],
      "min": [
        0.5369930267333984,
        -1.782060980796814,
        -2.8395891189575195
      ],
      "type": "VEC3"
    },
    {
      "bufferView": 2,
      "byteOffset": 470124,
      "componentType": 5126,
      "count": 7809,
      "max": [
        0.9999960660934448,
        0.9998723268508911,
        0.9992462396621704
      ],
      "min": [
        -0.9999963045120239,
        -0.9992630481719971,
        -0.9999717473983765
      ],
      "type": "VEC3"
    },
    {
      "bufferView": 1,
      "byteOffset": 125472,
      "componentType": 5126,
      "count": 7809,
      "max": [
        0.9918100237846375,
        0.9921560287475586
      ],
      "min": [
        0.008144999854266644,
        0.006231000181287527
      ],
      "type": "VEC2"
    },
    {
      "bufferView": 0,
      "byteOffset": 163668,
      "componentType": 5125,
      "count": 19065,
      "type": "SCALAR"
    }
  ],
  "asset": {
    "extras": {
      "author": "Brout (https://sketchfab.com/davidbroutian)",
      "license": "CC-BY-4.0 (http://creativecommons.org/licenses/by/4.0/)",
      "source": "https://sketchfab.com/3d-models/tank-t90-5d7502f6c6a544baa0603534a0e3a0e4",
      "title": "Tank T90"
    },
    "generator": "Sketchfab-12.66.0",
    "version": "2.0"
  },
  "bufferViews": [
    {
      "buffer": 0,
      "byteLength": 239928,
      "name": "floatBufferViews",
      "target": 34963
    },
    {
      "buffer": 0,
      "byteLength": 187944,
      "byteOffset": 239928,
      "byteStride": 8,
      "name": "floatBufferViews",
      "target": 34962
    },
    {
      "buffer": 0,
      "byteLength": 563832,
      "byteOffset": 427872,
      "byteStride": 12,
      "name": "floatBufferViews",
      "target": 34962
    }
  ],
  "buffers": [
    {
      "byteLength": 991704,
      "uri": "./scene.bin"
    }
  ],
  "images": [
    {
      "uri": "../../textures/tank/Main_Body_2_baseColor.png"
    },
    {
      "uri": "../../textures/tank/Main_Body_baseColor.png"
    },
    {
      "uri": "../../textures/tank/Turret_baseColor.png"
    },
    {
      "uri": "../../textures/tank/material_baseColor.png"
    }
  ],
  "materials": [
    {
      "doubleSided": true,
      "name": "Main_Body_2",
      "pbrMetallicRoughness": {
        "baseColorTexture": {
          "index": 0
        },
        "metallicFactor": 0.4690098538,
        "roughnessFactor": 0.5
      }
    },
    {
      "doubleSided": true,
      "name": "Main_Body",
      "pbrMetallicRoughness": {
        "baseColorTexture": {
          "index": 1
        },
        "metallicFactor": 0.0,
        "roughnessFactor": 0.5
      }
    },
    {
      "doubleSided": true,
      "name": "Turret",
      "pbrMetallicRoughness": {
        "baseColorTexture": {
          "index": 2
        },
        "metallicFactor": 0.0,
        "roughnessFactor": 0.5
      }
    },
    {
      "doubleSided": true,
      "name": "material",
      "pbrMetallicRoughness": {
        "baseColorTexture": {
          "index": 3
        },
        "metallicFactor": 0.0,
        "roughnessFactor": 0.5
      }
    }
  ],
  "meshes": [
    {
      "name": "Object_0",
      "primitives": [
        {
          "attributes": {
            "NORMAL": 1,
            "POSITION": 0,
            "TEXCOORD_0": 2
          },
          "indices": 3,
          "material": 0,
          "mode": 4
        }
      ]
    },
    {
      "name": "Object_1",
      "primitives": [
        {
          "attributes": {
            "NORMAL": 5,
            "POSITION": 4,
            "TEXCOORD_0": 6
          },
          "indices": 7,
          "material": 1,
          "mode": 4
        }
      ]
    },
    {
      "name": "Object_2",
      "primitives": [
        {
          "attributes": {
            "NORMAL": 9,
            "POSITION": 8,
            "TEXCOORD_0": 10
          },
          "indices": 11,
          "material": 2,
          "mode": 4
        }
      ]
    },
    {
      "name": "Object_3",
      "primitives": [
        {
          "attributes": {
            "NORMAL": 13,
            "POSITION": 12,
            "TEXCOORD_0": 14
          },
          "indices": 15,
          "material": 3,
          "mode": 4
        }
      ]
    }
  ],
  "nodes": [
    {
      "children": [
        1
      ],
      "matrix": [
        1.0,
        0.0,
        0.0,
        0.0,
        0.0,
        2.220446049250313e-16,
        -1.0,
        0.0,
        0.0,
        1.0,
        2.220446049250313e-16,
        0.0,
        0.0,
        -4.251000120802928e-07,
        8.159999964618682e-08,
        1.0
      ],
      "name": "Sketchfab_model"
    },
    {
      "children": [
        2
      ],
      "name": "root"
    },
    {
      "children": [
        3
      ],
      "matrix": [
        1.0,
        0.0,
        0.0,
        0.0,
        0.0,
        2.220446049250313e-16,
        1.0,
        0.0,
        0.0,
        -1.0,
        2.220446049250313e-16,
        0.0,
        0.0,
        0.0,
        0.0,
        1.0
      ],
      "name": "GLTF_SceneRootNode"
    },
    {
      "children": [
        4,
        5,
        6,
        7
      ],
      "matrix": [
        1.0,
        0.0,
        0.0,
        0.0,
        0.0,
        -1.685873969314855e-07,
        0.9999999999999858,
        0.0,
        0.0,
        -0.9999999999999858,
        -1.685873969314855e-07,
        0.0,
        0.0,
        0.0,
        0.0,
        1.0
      ],
      "name": "T-90_0"
    },
    {
      "mesh": 0,
      "name": "Object_4"
    },
    {
      "mesh": 1,
      "name": "Object_5"
    },
    {
      "mesh": 2,
      "name": "Object_6"
    },
    {
      "mesh": 3,
      "name": "Object_7"
    }
  ],
  "samplers": [
    {
      "magFilter": 9729,
      "minFilter": 9987,
      "wrapS": 10497,
      "wrapT": 10497
    }
  ],
  "scene": 0,
  "scenes": [
    {
      "name": "Sketchfab_Scene",
      "nodes": [
        0
      ]
    }
  ],
  "textures": [
    {
      "sampler": 0,
      "source": 0
    },
    {
      "sampler": 0,
      "source": 1
    },
    {
      "sampler": 0,
      "source": 2
    },
    {
      "sampler": 0,
      "source": 3
    }
  ]
}
